<?xml version="1.0" encoding="UTF-8" standalone="no"?>
<!DOCTYPE svg PUBLIC "-//W3C//DTD SVG 1.1//EN"
 "http://www.w3.org/Graphics/SVG/1.1/DTD/svg11.dtd">
<!-- Generated by graphviz version 2.43.0 (0)
 -->
<!-- Title: ui_contracts Pages: 1 -->
<svg width="737pt" height="753pt"
 viewBox="0.00 0.00 736.64 753.00" xmlns="http://www.w3.org/2000/svg" xmlns:xlink="http://www.w3.org/1999/xlink">
<g id="graph0" class="graph" transform="scale(1 1) rotate(0) translate(4 749)">
<title>ui_contracts</title>
<polygon fill="white" stroke="transparent" points="-4,4 -4,-749 732.64,-749 732.64,4 -4,4"/>
<g id="clust1" class="cluster">
<title>cluster_P_010</title>
<path fill="none" stroke="black" d="M12,-93C12,-93 708.64,-93 708.64,-93 714.64,-93 720.64,-99 720.64,-105 720.64,-105 720.64,-725 720.64,-725 720.64,-731 714.64,-737 708.64,-737 708.64,-737 12,-737 12,-737 6,-737 0,-731 0,-725 0,-725 0,-105 0,-105 0,-99 6,-93 12,-93"/>
<text text-anchor="start" x="10.5" y="-719.3" font-family="Public Sans" font-size="14.00">Billing</text>
<text text-anchor="start" x="10.5" y="-702.3" font-family="Public Sans" font-size="14.00">/billing</text>
<text text-anchor="start" x="10.5" y="-685.3" font-family="Public Sans" font-size="14.00">[auth]</text>
</g>
<g id="clust2" class="cluster">
<title>cluster_VS_010a</title>
<path fill="none" stroke="black" stroke-dasharray="5,2" d="M20,-516C20,-516 675.09,-516 675.09,-516 681.09,-516 687.09,-522 687.09,-528 687.09,-528 687.09,-656 687.09,-656 687.09,-662 681.09,-668 675.09,-668 675.09,-668 20,-668 20,-668 14,-668 8,-662 8,-656 8,-656 8,-528 8,-528 8,-522 14,-516 20,-516"/>
<text text-anchor="start" x="18" y="-650.8" font-family="Public Sans" font-size="14.00">ViewState: Billing Editing</text>
<text text-anchor="start" x="18" y="-633.8" font-family="Public Sans" font-size="14.00">data: PaymentMethod</text>
</g>
<g id="clust3" class="cluster">
<title>cluster_C_011</title>
<path fill="none" stroke="black" d="M28,-571C28,-571 214,-571 214,-571 220,-571 226,-577 226,-583 226,-583 226,-604 226,-604 226,-610 220,-616 214,-616 214,-616 28,-616 28,-616 22,-616 16,-610 16,-604 16,-604 16,-583 16,-583 16,-577 22,-571 28,-571"/>
<text text-anchor="start" x="26" y="-598.3" font-family="Public Sans" font-size="14.00">Component: Submit Button</text>
</g>
<g id="clust4" class="cluster">
<title>cluster_C_010</title>
<path fill="none" stroke="black" d="M52.81,-319C52.81,-319 700.64,-319 700.64,-319 706.64,-319 712.64,-325 712.64,-331 712.64,-331 712.64,-496 712.64,-496 712.64,-502 706.64,-508 700.64,-508 700.64,-508 52.81,-508 52.81,-508 46.81,-508 40.81,-502 40.81,-496 40.81,-496 40.81,-331 40.81,-331 40.81,-325 46.81,-319 52.81,-319"/>
<text text-anchor="start" x="50.81" y="-490.3" font-family="Public Sans" font-size="14.00">Component: Billing Form</text>
</g>
<g id="clust5" class="cluster">
<title>cluster_secondary_state_group_C_010</title>
<path fill="none" stroke="black" stroke-dasharray="5,2" d="M60.81,-327C60.81,-327 692.64,-327 692.64,-327 698.64,-327 704.64,-333 704.64,-339 704.64,-339 704.64,-461 704.64,-461 704.64,-467 698.64,-473 692.64,-473 692.64,-473 60.81,-473 60.81,-473 54.81,-473 48.81,-467 48.81,-461 48.81,-461 48.81,-339 48.81,-339 48.81,-333 54.81,-327 60.81,-327"/>
<text text-anchor="start" x="58.81" y="-455.8" font-family="Public Sans" font-size="14.00">State detail: Billing Form</text>
<text text-anchor="start" x="58.81" y="-438.8" font-family="Public Sans" font-size="14.00">scope_id=C&#45;010</text>
</g>
<g id="clust6" class="cluster">
<title>cluster_P_011</title>
<path fill="none" stroke="black" d="M573.19,-8C573.19,-8 699.19,-8 699.19,-8 705.19,-8 711.19,-14 711.19,-20 711.19,-20 711.19,-73 711.19,-73 711.19,-79 705.19,-85 699.19,-85 699.19,-85 573.19,-85 573.19,-85 567.19,-85 561.19,-79 561.19,-73 561.19,-73 561.19,-20 561.19,-20 561.19,-14 567.19,-8 573.19,-8"/>
<text text-anchor="start" x="571.19" y="-67.3" font-family="Public Sans" font-size="14.00">Confirmation</text>
<text text-anchor="start" x="571.19" y="-50.3" font-family="Public Sans" font-size="14.00">/confirmation</text>
<text text-anchor="start" x="571.19" y="-33.3" font-family="Public Sans" font-size="14.00">[role:billing_agent]</text>
</g>
<!-- P&#45;010__anchor -->
<!-- P&#45;011__anchor -->
<!-- P&#45;010__anchor&#45;&gt;P&#45;011__anchor -->
<!-- C&#45;011__body -->
<g id="node2" class="node">
<title>C&#45;011__body</title>
</g>
<!-- C&#45;011__anchor -->
<g id="node3" class="node">
<title>C&#45;011__anchor</title>
<ellipse fill="#666666" stroke="#666666" cx="120.5" cy="-527" rx="2.88" ry="2.88"/>
</g>
<!-- E&#45;010 -->
<g id="node4" class="node">
<title>E&#45;010</title>
<ellipse fill="none" stroke="black" cx="636.19" cy="-574" rx="42.79" ry="18"/>
<text text-anchor="middle" x="636.19" y="-570.3" font-family="Public Sans" font-size="14.00">Submit</text>
</g>
<!-- C&#45;011__anchor&#45;&gt;E&#45;010 -->
<g id="edge1" class="edge">
<title>C&#45;011__anchor&#45;&gt;E&#45;010</title>
<path fill="none" stroke="black" stroke-dasharray="5,2" d="M123.79,-527.21C153.32,-529.91 460.58,-558.02 584.15,-569.33"/>
<polygon fill="black" stroke="black" points="583.85,-572.82 594.12,-570.24 584.48,-565.85 583.85,-572.82"/>
<text text-anchor="middle" x="401.19" y="-566.8" font-family="Public Sans" font-size="14.00">emits</text>
</g>
<!-- VS&#45;010a__anchor -->
<g id="node5" class="node">
<title>VS&#45;010a__anchor</title>
<ellipse fill="#666666" stroke="#666666" cx="120.5" cy="-282" rx="2.88" ry="2.88"/>
</g>
<!-- VS&#45;010b -->
<g id="node6" class="node">
<title>VS&#45;010b</title>
<path fill="none" stroke="black" stroke-dasharray="5,2" d="M684.19,-311C684.19,-311 588.19,-311 588.19,-311 582.19,-311 576.19,-305 576.19,-299 576.19,-299 576.19,-285 576.19,-285 576.19,-279 582.19,-273 588.19,-273 588.19,-273 684.19,-273 684.19,-273 690.19,-273 696.19,-279 696.19,-285 696.19,-285 696.19,-299 696.19,-299 696.19,-305 690.19,-311 684.19,-311"/>
<text text-anchor="middle" x="636.19" y="-295.8" font-family="Public Sans" font-size="14.00">Billing Success</text>
<text text-anchor="middle" x="636.19" y="-280.8" font-family="Public Sans" font-size="14.00">data: Receipt</text>
</g>
<!-- VS&#45;010a__anchor&#45;&gt;VS&#45;010b -->
<g id="edge6" class="edge">
<title>VS&#45;010a__anchor&#45;&gt;VS&#45;010b</title>
<path fill="none" stroke="black" d="M123.79,-282.04C151.97,-282.59 433.04,-288.06 566.07,-290.65"/>
<polygon fill="black" stroke="black" points="566.1,-294.16 576.16,-290.85 566.23,-287.16 566.1,-294.16"/>
<text text-anchor="middle" x="401.19" y="-292.8" font-family="Public Sans" font-size="14.00">[Submit] {payment_valid} / SA&#45;010</text>
</g>
<!-- secondary_state_group:C&#45;010__anchor -->
<!-- ST&#45;010a -->
<g id="node8" class="node">
<title>ST&#45;010a</title>
<ellipse fill="none" stroke="black" stroke-dasharray="5,2" cx="120.5" cy="-353" rx="63.89" ry="18"/>
<text text-anchor="middle" x="120.5" y="-349.3" font-family="Public Sans" font-size="14.00">Form Ready</text>
</g>
<!-- ST&#45;010b -->
<g id="node9" class="node">
<title>ST&#45;010b</title>
<ellipse fill="none" stroke="black" stroke-dasharray="5,2" cx="636.19" cy="-385" rx="60.39" ry="18"/>
<text text-anchor="middle" x="636.19" y="-381.3" font-family="Public Sans" font-size="14.00">Submitting</text>
</g>
<!-- ST&#45;010a&#45;&gt;ST&#45;010b -->
<g id="edge5" class="edge">
<title>ST&#45;010a&#45;&gt;ST&#45;010b</title>
<path fill="none" stroke="black" stroke-dasharray="5,2" d="M182.95,-356.83C279.5,-362.84 466.08,-374.47 566.77,-380.74"/>
<polygon fill="black" stroke="black" points="566.64,-384.24 576.83,-381.36 567.07,-377.25 566.64,-384.24"/>
<text text-anchor="middle" x="401.19" y="-381.8" font-family="Public Sans" font-size="14.00">[Submit] {payment_valid} / SA&#45;010</text>
</g>
<!-- C&#45;010__anchor -->
<g id="node10" class="node">
<title>C&#45;010__anchor</title>
<ellipse fill="#666666" stroke="#666666" cx="120.5" cy="-188" rx="2.88" ry="2.88"/>
</g>
<!-- SA&#45;010 -->
<g id="node11" class="node">
<title>SA&#45;010</title>
<polygon fill="none" stroke="black" points="707.19,-223 565.19,-223 565.19,-219 561.19,-219 561.19,-215 565.19,-215 565.19,-195 561.19,-195 561.19,-191 565.19,-191 565.19,-187 707.19,-187 707.19,-223"/>
<polyline fill="none" stroke="black" points="565.19,-219 569.19,-219 569.19,-215 565.19,-215 "/>
<polyline fill="none" stroke="black" points="565.19,-195 569.19,-195 569.19,-191 565.19,-191 "/>
<text text-anchor="middle" x="636.19" y="-201.3" font-family="Public Sans" font-size="14.00">Save Subscription</text>
</g>
<!-- C&#45;010__anchor&#45;&gt;SA&#45;010 -->
<g id="edge4" class="edge">
<title>C&#45;010__anchor&#45;&gt;SA&#45;010</title>
<path fill="none" stroke="black" d="M123.79,-188.08C151.22,-188.98 418.29,-197.82 555.17,-202.35"/>
<polygon fill="black" stroke="black" points="555.08,-205.85 565.19,-202.68 555.31,-198.85 555.08,-205.85"/>
<text text-anchor="middle" x="401.19" y="-204.8" font-family="Public Sans" font-size="14.00">depends on</text>
</g>
<!-- D&#45;010 -->
<g id="node12" class="node">
<title>D&#45;010</title>
<path fill="none" stroke="black" d="M688.19,-133.73C688.19,-135.53 664.89,-137 636.19,-137 607.5,-137 584.19,-135.53 584.19,-133.73 584.19,-133.73 584.19,-104.27 584.19,-104.27 584.19,-102.47 607.5,-101 636.19,-101 664.89,-101 688.19,-102.47 688.19,-104.27 688.19,-104.27 688.19,-133.73 688.19,-133.73"/>
<path fill="none" stroke="black" d="M688.19,-133.73C688.19,-131.92 664.89,-130.45 636.19,-130.45 607.5,-130.45 584.19,-131.92 584.19,-133.73"/>
<text text-anchor="middle" x="636.19" y="-115.3" font-family="Public Sans" font-size="14.00">Subscription</text>
</g>
<!-- C&#45;010__anchor&#45;&gt;D&#45;010 -->
<g id="edge3" class="edge">
<title>C&#45;010__anchor&#45;&gt;D&#45;010</title>
<path fill="none" stroke="black" stroke-dasharray="1,5" d="M123.69,-187.68C137.56,-185.67 214.44,-174.55 277.19,-166 381.39,-151.8 502.75,-136.03 574.04,-126.84"/>
<polygon fill="black" stroke="black" points="574.72,-130.28 584.19,-125.54 573.82,-123.34 574.72,-130.28"/>
<text text-anchor="middle" x="401.19" y="-169.8" font-family="Public Sans" font-size="14.00">binds field status</text>
</g>
</g>
</svg>
